<?xml version="1.0" encoding="UTF-8"?><svg id="a" xmlns="http://www.w3.org/2000/svg" viewBox="0 0 127.41 127.41"><defs><style>.b{fill:#fff;}</style></defs><rect class="b" width="127.41" height="127.41" rx="11.5" ry="11.5"/><g><circle class="b" cx="63.7" cy="63.7" r="58.02"/><g><path d="M39.21,66.2c.02-.44,.06-1.02,.09-1.6,0-.1,.02-.19,.02-.29,0-.71,.1-1.41,.19-2.11,.19-1.42,.46-2.83,.82-4.22,.3-1.13,.63-2.25,1.06-3.33,.16-.41,.34-.81,.51-1.21,.09-.21,.07-.28-.13-.42-.14-.1-.28-.19-.43-.28-2.05-1.31-4.11-2.61-6.22-3.83-.91-.52-1.83-1.02-2.77-1.47-.61-.29-1.24-.57-1.89-.77-.75-.23-1.51-.38-2.3-.36-.29,0-.58,0-.88,0-.73-.02-1.31-.32-1.75-.9-.41-.53-.68-1.12-.71-1.8-.02-.43,.07-.82,.31-1.17,.17-.24,.35-.47,.52-.71,.18-.26,.37-.51,.54-.78,.17-.27,.28-.57,.29-.89,0-.29,0-.58,0-.88-.01-.37-.04-.73-.06-1.09-.04-1,.36-1.8,1.13-2.41,.97-.78,2.08-1.25,3.32-1.4,.3-.04,.59-.01,.87,.05,.4,.09,.7,.34,.86,.72,.09,.23,.16,.46,.17,.71,.01,.36,.03,.73,.04,1.09,.02,.36,.03,.73,.05,1.09,.05,.62,.27,1.18,.6,1.7,.42,.67,.96,1.22,1.55,1.74,.91,.81,1.88,1.54,2.88,2.25,2.17,1.53,4.41,2.96,6.66,4.36,.61,.38,.53,.38,1.02-.13,.84-.88,1.79-1.65,2.77-2.37,1.89-1.38,3.92-2.55,6.09-3.44,1.78-.73,3.62-1.28,5.52-1.61,1.3-.22,2.61-.31,3.93-.3,.56,0,1.12,0,1.68,.06,1.41,.12,2.8,.36,4.16,.73,3.83,1.05,7.27,2.87,10.37,5.35,.63,.5,1.23,1.03,1.78,1.62,.1,.11,.2,.21,.32,.3,.05,.04,.15,.05,.2,.03,.13-.05,.26-.13,.39-.2,2.04-1.28,4.08-2.57,6.06-3.94,.88-.61,1.75-1.24,2.59-1.9,.59-.47,1.17-.96,1.68-1.52,.23-.25,.45-.51,.66-.78,.53-.73,.8-1.55,.82-2.45,0-.44,.01-.88,0-1.32,0-.32,.06-.63,.15-.93,.16-.51,.51-.8,1.04-.9,.39-.07,.78-.04,1.16,.04,1.12,.22,2.13,.68,2.99,1.43,.22,.19,.42,.41,.59,.65,.32,.45,.45,.97,.47,1.51,0,.24-.02,.49-.04,.73-.02,.41-.05,.83-.06,1.24,0,.4,.12,.77,.33,1.1,.14,.23,.31,.44,.46,.65,.17,.24,.36,.46,.53,.7,.35,.51,.46,1.05,.32,1.66-.14,.56-.38,1.05-.74,1.49-.41,.5-.94,.77-1.58,.8-.36,.02-.73,.01-1.1,.02-.41,0-.82,.04-1.23,.12-.6,.12-1.18,.3-1.74,.52-.77,.31-1.51,.68-2.24,1.06-1.21,.63-2.38,1.32-3.55,2.03-1.43,.88-2.85,1.78-4.27,2.67-.19,.12-.37,.24-.55,.37-.08,.05-.11,.17-.07,.25,.21,.49,.42,.98,.61,1.48,.68,1.8,1.17,3.66,1.52,5.55,.16,.86,.3,1.73,.39,2.6,.14,1.31,.23,2.62,.18,3.94-.01,.27,0,.54-.01,.8,0,.1,.04,.19,.13,.24,.49,.32,.97,.64,1.47,.95,1.37,.84,2.74,1.67,4.23,2.3,.72,.31,1.45,.56,2.22,.71,.88,.18,1.74,.12,2.6-.13,.44-.13,.89-.26,1.33-.39,.21-.06,.42-.13,.63-.17,.19-.04,.39-.06,.58-.06,.76,0,1.1,.45,1.26,.92,.12,.34,.2,.7,.2,1.07,0,.84-.17,1.64-.51,2.41-.3,.66-.76,1.19-1.39,1.55-.3,.17-.6,.31-.91,.47-.26,.13-.52,.27-.78,.4-.54,.27-.94,.7-1.2,1.24-.17,.35-.31,.71-.46,1.07-.12,.29-.25,.58-.42,.85-.23,.37-.56,.59-.96,.73-.49,.18-1.33-.02-1.71-.53-.21-.28-.36-.58-.44-.91-.1-.48-.19-.95-.28-1.43-.04-.19-.08-.38-.11-.57-.13-.77-.51-1.42-1.07-1.95-.35-.34-.72-.66-1.09-.97-1.24-1-2.6-1.8-4.07-2.41-.15-.06-.21-.04-.27,.13-.04,.11-.08,.23-.12,.34-.18,.5-.36,1.01-.56,1.5-.81,2.06-1.97,3.9-3.43,5.56-.32,.37-.66,.72-.99,1.07-.67,.71-1.06,1.56-1.31,2.49-.23,.87-.4,1.76-.56,2.64-.14,.74-.27,1.49-.54,2.19-.15,.39-.34,.75-.59,1.08-.5,.64-1.16,.96-1.95,1-.74,.03-1.38-.24-1.88-.81-.27-.32-.47-.68-.6-1.08-.15-.44-.29-.88-.43-1.32-.02-.07-.05-.13-.08-.2-.03-.08-.18-.11-.25-.07-.15,.1-.25,.23-.32,.39-.08,.18-.14,.36-.21,.54-.15,.44-.3,.87-.46,1.31-.15,.41-.34,.81-.56,1.19-.67,1.15-1.7,1.77-2.99,2-.7,.13-1.41,.1-2.11-.02-.41-.07-.8-.21-1.17-.4-.68-.34-1.14-.9-1.46-1.58-.22-.46-.36-.95-.49-1.45-.05-.21-.13-.41-.21-.62-.03-.08-.21-.09-.25-.02-.04,.06-.09,.12-.1,.19-.11,.37-.2,.75-.31,1.12-.13,.44-.31,.87-.56,1.26-.37,.58-.87,.97-1.5,1.23-.78,.32-1.6,.4-2.43,.33-.46-.04-.92-.12-1.36-.27-1.07-.37-1.83-1.08-2.33-2.08-.3-.59-.51-1.21-.73-1.83-.1-.28-.19-.55-.29-.83-.07-.19-.18-.34-.34-.46-.08-.06-.22-.04-.26,.03-.04,.09-.09,.17-.12,.26-.15,.44-.28,.88-.43,1.32-.12,.35-.29,.67-.52,.95-.59,.71-1.35,1-2.27,.84-.86-.14-1.46-.63-1.89-1.36-.28-.49-.47-1.02-.59-1.56-.12-.52-.21-1.05-.32-1.57-.16-.84-.32-1.67-.55-2.49-.24-.86-.61-1.64-1.21-2.3-.24-.27-.5-.54-.75-.8-1.66-1.79-2.95-3.81-3.82-6.09-.22-.57-.41-1.14-.62-1.71-.03-.1-.14-.14-.24-.09-1.65,.69-3.17,1.61-4.53,2.77-.35,.3-.67,.64-.98,.98-.39,.42-.6,.94-.73,1.49-.07,.31-.12,.62-.17,.93-.07,.43-.14,.86-.27,1.28-.06,.18-.12,.37-.22,.54-.62,1.09-2.09,1.14-2.8,.14-.15-.22-.26-.47-.38-.71-.11-.24-.2-.5-.31-.74-.11-.24-.22-.49-.35-.72-.24-.44-.58-.78-1.02-1.02-.3-.16-.61-.3-.91-.46-.34-.18-.69-.36-1.02-.56-.49-.29-.86-.72-1.12-1.22-.28-.52-.47-1.07-.53-1.66-.01-.12-.03-.24-.05-.36-.1-.52,0-1.02,.1-1.52,.03-.14,.09-.28,.16-.41,.22-.42,.58-.65,1.05-.68,.24-.02,.49,0,.72,.06,.35,.1,.7,.21,1.05,.31,.54,.16,1.07,.32,1.63,.42,.51,.08,1.02,.09,1.53,.01,.82-.12,1.61-.37,2.37-.7,.74-.31,1.46-.66,2.16-1.06,1.23-.69,2.43-1.44,3.61-2.2,.2-.13,.24-.28,.22-.49-.03-.39-.04-.78-.06-1.32Z"/><path class="b" d="M51.89,65.13c-.21,0-.37,.17-.37,.38h0c0,1.22-1.01,2.2-2.25,2.2s-2.25-.98-2.25-2.2h0c0-.21-.16-.38-.37-.38h-5.24c-.21,0-.38,.17-.37,.38,.18,4.87,3.84,8.75,8.32,8.75s8.13-3.88,8.32-8.75c0-.21-.16-.38-.37-.38h-5.42Z"/><path class="b" d="M80.43,65.22s0,.03,0,.05c0,1.21-1.01,2.2-2.26,2.2s-2.26-.98-2.26-2.2c0-.02,0-.03,0-.05h-5.4c-.21,0-.38,.17-.37,.38,.18,4.86,3.72,8.73,8.07,8.73s7.89-3.88,8.07-8.73c0-.21-.16-.38-.37-.38h-5.48Z"/></g></g></svg>